<svg xmlns="http://www.w3.org/2000/svg" width="18" height="23" viewBox="0 0 18 23" fill="none"><path fill-rule="evenodd" clip-rule="evenodd" d="M9 1.5C5.36005 1.5 1.5 4.26121 1.5 9C1.5 10.2643 1.96315 11.715 2.69859 13.2088C3.43044 14.6954 4.41152 16.1842 5.40112 17.514C6.38955 18.8422 7.37916 20.002 8.12217 20.8302C8.48311 21.2325 8.78526 21.5558 9 21.7814C9.21474 21.5558 9.51689 21.2325 9.87783 20.8302C10.6208 20.002 11.6105 18.8422 12.5989 17.514C13.5885 16.1842 14.5696 14.6954 15.3014 13.2088C16.0369 11.715 16.5 10.2643 16.5 9C16.5 4.26121 12.64 1.5 9 1.5ZM9 22.5C8.64645 22.8536 8.64636 22.8535 8.64624 22.8533L8.64584 22.8529L8.64451 22.8516L8.63969 22.8468L8.62155 22.8285C8.60575 22.8125 8.58261 22.789 8.55262 22.7583C8.49264 22.697 8.40524 22.6068 8.29433 22.4905C8.07254 22.2578 7.75659 21.9201 7.37783 21.498C6.62084 20.6542 5.61045 19.4703 4.59888 18.111C3.58848 16.7533 2.56956 15.2108 1.80141 13.6505C1.03685 12.0975 0.5 10.4857 0.5 9C0.5 3.61379 4.90795 0.5 9 0.5C13.092 0.5 17.5 3.61379 17.5 9C17.5 10.4857 16.9631 12.0975 16.1986 13.6505C15.4304 15.2108 14.4115 16.7533 13.4011 18.111C12.3895 19.4703 11.3792 20.6542 10.6222 21.498C10.2434 21.9201 9.92746 22.2578 9.70567 22.4905C9.59476 22.6068 9.50736 22.697 9.44738 22.7583C9.41739 22.789 9.39425 22.8125 9.37845 22.8285L9.36031 22.8468L9.35549 22.8516L9.35416 22.8529L9.35376 22.8533C9.35364 22.8535 9.35355 22.8536 9 22.5ZM9 22.5L9.35355 22.8536C9.15829 23.0488 8.84171 23.0488 8.64645 22.8536L9 22.5Z" fill="white"></path><path fill-rule="evenodd" clip-rule="evenodd" d="M9 7C7.89543 7 7 7.89543 7 9C7 10.1046 7.89543 11 9 11C10.1046 11 11 10.1046 11 9C11 7.89543 10.1046 7 9 7ZM6 9C6 7.34315 7.34315 6 9 6C10.6569 6 12 7.34315 12 9C12 10.6569 10.6569 12 9 12C7.34315 12 6 10.6569 6 9Z" fill="white"></path></svg>