<svg xmlns="http://www.w3.org/2000/svg" width="97" height="75" viewBox="0 0 97 75" fill="none"><path fill-rule="evenodd" clip-rule="evenodd" d="M34.7466 8.84729V3.22719C34.7466 1.79459 33.5854 0.633301 32.1527 0.633301H14.4278C12.9952 0.633301 11.8339 1.79459 11.8339 3.22719V8.84729H3.18764C1.75508 8.84729 0.59375 10.0086 0.59375 11.4412V22.2491C0.59375 23.6817 1.75508 24.8429 3.18764 24.8429H5.34922V72.3976C5.34922 73.8303 6.5105 74.9915 7.94311 74.9915H90.5153C91.948 74.9915 93.1092 73.8303 93.1092 72.3976V24.8429H94.4061C95.8388 24.8429 97 23.6817 97 22.2491V11.4412C97 10.0086 95.8388 8.84729 94.4061 8.84729H85.7598V3.22719C85.7598 1.79459 84.5986 0.633301 83.1659 0.633301H65.8733C64.4407 0.633301 63.2794 1.79459 63.2794 3.22719V8.84729H34.7466ZM15.2925 4.09182V8.84729H31.2881V4.09182H15.2925ZM8.80774 71.533V24.8429H13.5632C14.5183 24.8429 15.2925 24.0688 15.2925 23.1137C15.2925 22.1586 14.5183 21.3844 13.5632 21.3844H4.05227V12.3058H93.5415V21.3844H84.0305C83.0751 21.3844 82.3013 22.1586 82.3013 23.1137C82.3013 24.0688 83.0751 24.8429 84.0305 24.8429H89.6506V71.533H8.80774ZM66.7379 8.84729H82.3013V4.09182H66.7379V8.84729Z" fill="#2E3A5B"></path><path d="M24.4443 43.3326H36.3364C36.8762 43.3326 37.3938 43.1644 37.7755 42.8651C38.1572 42.5657 38.3716 42.1597 38.3716 41.7364C38.3716 41.313 38.1572 40.907 37.7755 40.6077C37.3938 40.3083 36.8762 40.1401 36.3364 40.1401H24.4443C23.9046 40.1401 23.3869 40.3083 23.0053 40.6077C22.6236 40.907 22.4092 41.313 22.4092 41.7364C22.4092 42.1597 22.6236 42.5657 23.0053 42.8651C23.3869 43.1644 23.9046 43.3326 24.4443 43.3326Z" fill="#2E3A5B"></path><path d="M63.8177 43.7724H67.7287V47.6825C67.7287 48.2223 67.9431 48.74 68.3246 49.1217C68.7062 49.5033 69.2236 49.7178 69.7632 49.7178C70.3028 49.7178 70.8203 49.5033 71.2019 49.1217C71.5834 48.74 71.7978 48.2223 71.7978 47.6825V43.7724H75.7111C76.2507 43.7724 76.7682 43.558 77.1497 43.1763C77.5313 42.7946 77.7456 42.2769 77.7456 41.7371C77.7456 41.1974 77.5313 40.6797 77.1497 40.298C76.7682 39.9163 76.2507 39.7019 75.7111 39.7019H71.8024V35.7906C71.8024 35.2509 71.5881 34.7332 71.2065 34.3515C70.825 33.9698 70.3075 33.7554 69.7679 33.7554C69.2283 33.7554 68.7108 33.9698 68.3293 34.3515C67.9477 34.7332 67.7334 35.2509 67.7334 35.7906V39.7019H63.8177C63.2781 39.7019 62.7606 39.9163 62.3791 40.298C61.9975 40.6797 61.7832 41.1974 61.7832 41.7371C61.7832 42.2769 61.9975 42.7946 62.3791 43.1763C62.7606 43.558 63.2781 43.7724 63.8177 43.7724Z" fill="#2E3A5B"></path></svg>