<svg xmlns="http://www.w3.org/2000/svg" width="104" height="104" viewBox="0 0 104 104" fill="none"><g clip-path="url(#clip0_68_628)"><path d="M57.9167 53.5849H65.8647C66.5934 53.5849 67.2565 54.0049 67.5673 54.6642C67.8779 55.3231 67.7821 56.1029 67.319 56.6645L43.0524 86.1311C43.0524 86.1311 43.0524 86.1311 43.0523 86.1311C42.685 86.5775 42.148 86.8167 41.5984 86.8167C41.3065 86.8167 41.0106 86.749 40.7374 86.6077M57.9167 53.5849L36.6794 57.7372L36.7951 57.8327L36.6793 57.7373L36.6793 57.7373C36.2158 58.2989 36.1201 59.0787 36.4307 59.7374H36.4307C36.7415 60.3967 37.4045 60.8167 38.1333 60.8167H46.0813L39.7789 84.4475L39.7788 84.4476C39.5509 85.3044 39.9503 86.2026 40.7374 86.6077M57.9167 53.5849L64.2191 29.9541L64.2191 29.954C64.447 29.0972 64.0477 28.199 63.2606 27.794L57.9167 53.5849ZM40.7374 86.6077C40.7374 86.6076 40.7373 86.6076 40.7372 86.6076L40.8062 86.4743L40.7376 86.6077C40.7375 86.6077 40.7375 86.6077 40.7374 86.6077ZM50.0267 57.7866L50.0265 57.7864C49.6706 57.3232 49.1189 57.0502 48.533 57.0502H42.1238L58.3486 37.3486L53.647 54.981C53.647 54.981 53.647 54.981 53.647 54.981C53.4963 55.5461 53.6168 56.1487 53.9727 56.6135L53.9728 56.6137C54.3288 57.0769 54.8805 57.3502 55.4663 57.3502H61.8756L45.6508 77.0515L50.3523 59.4192C50.5031 58.8541 50.3825 58.2514 50.0267 57.7866Z" fill="#2E3A5B" stroke="#2E3A5B" stroke-width="0.3"></path><path d="M62.4005 -0.15H41.6005C40.5609 -0.15 39.7172 0.693704 39.7172 1.73327V8.66653C39.7172 9.70609 40.5609 10.5498 41.6005 10.5498H62.4005C63.44 10.5498 64.2837 9.70609 64.2837 8.66653V1.73327C64.2837 0.693704 63.44 -0.15 62.4005 -0.15ZM60.5172 6.78327H43.4839V3.61673H60.5172V6.78327Z" fill="#2E3A5B" stroke="#2E3A5B" stroke-width="0.3"></path><path d="M71.3596 6.78311H32.6404C28.8949 6.78311 25.85 9.82993 25.85 13.5737V97.3595C25.85 101.103 28.8984 104.15 32.6404 104.15H71.3596C75.1032 104.15 78.15 101.103 78.15 97.3595V13.5737C78.15 9.82991 75.1032 6.78311 71.3596 6.78311ZM74.3816 97.3595C74.3816 99.0274 73.0257 100.383 71.3578 100.383H32.6387C30.9708 100.383 29.6149 99.0274 29.6149 97.3595V13.5737C29.6149 11.9058 30.9724 10.5498 32.6387 10.5498H71.3578C73.0257 10.5498 74.3816 11.9058 74.3816 13.5737V97.3595Z" fill="#2E3A5B" stroke="#2E3A5B" stroke-width="0.3"></path></g><defs><clipPath id="clip0_68_628"><rect width="104" height="104" fill="white"></rect></clipPath></defs></svg>