<svg xmlns="http://www.w3.org/2000/svg" width="98" height="76" viewBox="0 0 98 76" fill="none"><path d="M91.3531 9.14151H88.0708V2.38198C88.0708 1.86835 87.8667 1.37574 87.5035 1.01255C87.1403 0.649352 86.6477 0.445312 86.1341 0.445312H74.1931C73.6796 0.445606 73.1872 0.649741 72.824 1.01287C72.4609 1.37601 72.2568 1.86844 72.2565 2.38198V9.14151H26.4171V2.38198C26.4169 1.86844 26.2127 1.37601 25.8496 1.01287C25.4865 0.649741 24.994 0.445606 24.4805 0.445312H12.5451C12.0315 0.445606 11.5391 0.649741 11.176 1.01287C10.8128 1.37601 10.6087 1.86844 10.6084 2.38198V9.14151H7.32048C5.55831 9.14356 3.86889 9.84449 2.62285 11.0905C1.37681 12.3366 0.675878 14.026 0.673828 15.7882V18.3092C0.674505 19.5968 1.04889 20.8566 1.75157 21.9357C2.45424 23.0147 3.45499 23.8667 4.63238 24.3881V66.1936C4.63531 68.6755 5.62253 71.0548 7.37748 72.8098C9.13243 74.5648 11.5118 75.552 13.9937 75.5549H84.6799C87.1618 75.552 89.5412 74.5648 91.2961 72.8098C93.0511 71.0548 94.0383 68.6755 94.0412 66.1936V24.3881C95.2178 23.8671 96.2179 23.016 96.9205 21.938C97.6231 20.86 97.998 19.6014 97.9998 18.3147V15.7882C97.9977 14.026 97.2968 12.3366 96.0508 11.0905C94.8047 9.84449 93.1153 9.14356 91.3531 9.14151ZM76.1298 4.31865H84.1974V9.14151H76.1298V4.31865ZM14.4762 4.31865H22.5438V9.14151H14.4762V4.31865ZM90.1723 66.1936C90.1705 67.6486 89.5918 69.0434 88.563 70.0722C87.5342 71.101 86.1393 71.6798 84.6843 71.6816H13.9937C12.5387 71.6798 11.1439 71.101 10.115 70.0722C9.08624 69.0434 8.50748 67.6486 8.50572 66.1936V24.9558H90.1679L90.1723 66.1936ZM94.1309 18.3092C94.13 19.0444 93.8375 19.7493 93.3176 20.2692C92.7977 20.7891 92.0928 21.0816 91.3575 21.0825H7.32048C6.58522 21.0816 5.88033 20.7891 5.36042 20.2692C4.84052 19.7493 4.54805 19.0444 4.54717 18.3092V15.7882C4.54805 15.0529 4.84052 14.348 5.36042 13.8281C5.88033 13.3082 6.58522 13.0157 7.32048 13.0149H91.3531C92.0884 13.0157 92.7933 13.3082 93.3132 13.8281C93.8331 14.348 94.1255 15.0529 94.1264 15.7882L94.1309 18.3092Z" fill="#2E3A5B"></path><path d="M16.7072 48.6736H28.024C28.5376 48.6736 29.0302 48.4696 29.3934 48.1064C29.7566 47.7432 29.9606 47.2506 29.9606 46.737C29.9606 46.2233 29.7566 45.7307 29.3934 45.3675C29.0302 45.0043 28.5376 44.8003 28.024 44.8003H16.7072C16.1935 44.8003 15.7009 45.0043 15.3377 45.3675C14.9746 45.7307 14.7705 46.2233 14.7705 46.737C14.7705 47.2506 14.9746 47.7432 15.3377 48.1064C15.7009 48.4696 16.1935 48.6736 16.7072 48.6736Z" fill="#2E3A5B"></path><path d="M70.6457 48.6738H74.3685V52.3945C74.3685 52.9081 74.5725 53.4007 74.9357 53.7639C75.2989 54.1271 75.7915 54.3311 76.3052 54.3311C76.8188 54.3311 77.3114 54.1271 77.6746 53.7639C78.0378 53.4007 78.2418 52.9081 78.2418 52.3945V48.6738H81.9669C82.4805 48.6738 82.9731 48.4698 83.3363 48.1066C83.6995 47.7434 83.9035 47.2508 83.9035 46.7372C83.9035 46.2235 83.6995 45.7309 83.3363 45.3677C82.9731 45.0045 82.4805 44.8005 81.9669 44.8005H78.2462V41.0788C78.2462 40.5651 78.0422 40.0725 77.679 39.7093C77.3158 39.3461 76.8232 39.1421 76.3096 39.1421C75.7959 39.1421 75.3033 39.3461 74.9401 39.7093C74.577 40.0725 74.3729 40.5651 74.3729 41.0788V44.8005H70.6457C70.132 44.8005 69.6394 45.0045 69.2762 45.3677C68.913 45.7309 68.709 46.2235 68.709 46.7372C68.709 47.2508 68.913 47.7434 69.2762 48.1066C69.6394 48.4698 70.132 48.6738 70.6457 48.6738Z" fill="#2E3A5B"></path></svg>