<svg xmlns="http://www.w3.org/2000/svg" width="104" height="90" viewBox="0 0 104 90" fill="none"><path fill-rule="evenodd" clip-rule="evenodd" d="M0 87.7681C0 88.8899 0.909422 89.7993 2.03125 89.7993H101.969C103.091 89.7993 104 88.8899 104 87.7681V77.1489C104 76.0271 103.091 75.1176 101.969 75.1176H2.03125C0.909422 75.1176 0 76.0271 0 77.1489V87.7681ZM4.0625 85.7368V79.1801H99.9375V85.7368H4.0625Z" fill="#2E3A5B"></path><path fill-rule="evenodd" clip-rule="evenodd" d="M6.04102 77.1489C6.04102 78.2708 6.95044 79.1802 8.07227 79.1802H95.9267C97.0485 79.1802 97.9579 78.2708 97.9579 77.1489V22.0415C97.9579 20.9197 97.0485 20.0103 95.9267 20.0103H8.07227C6.95044 20.0103 6.04102 20.9197 6.04102 22.0415V77.1489ZM10.1035 75.1177V24.0728H93.8954V75.1177H10.1035Z" fill="#2E3A5B"></path><path fill-rule="evenodd" clip-rule="evenodd" d="M11.5596 11.4224C11.5596 12.5442 12.469 13.4536 13.5908 13.4536H33.828C34.9498 13.4536 35.8592 12.5442 35.8592 11.4224V2.23157C35.8592 1.10974 34.9498 0.200315 33.828 0.200315H13.5908C12.469 0.200315 11.5596 1.10974 11.5596 2.23157V11.4224ZM15.6221 9.39111V4.26282H31.7967V9.39111H15.6221Z" fill="#2E3A5B"></path><path fill-rule="evenodd" clip-rule="evenodd" d="M68.1406 11.4224C68.1406 12.5442 69.05 13.4536 70.1719 13.4536H90.409C91.5308 13.4536 92.4403 12.5442 92.4403 11.4224V2.23157C92.4403 1.10974 91.5308 0.200315 90.409 0.200315H70.1719C69.05 0.200315 68.1406 1.10974 68.1406 2.23157V11.4224ZM72.2031 9.39111V4.26282H88.3778V9.39111H72.2031Z" fill="#2E3A5B"></path><path fill-rule="evenodd" clip-rule="evenodd" d="M49.7037 70.8061C50.5881 71.0466 51.5241 70.665 51.9882 69.8747L65.2842 47.235C65.653 46.6069 65.6574 45.8294 65.2955 45.1972C64.9337 44.5651 64.261 44.1751 63.5327 44.1751H55.794V30.3443C55.794 29.4277 55.1802 28.6247 54.2958 28.3842C53.4113 28.1437 52.4754 28.5253 52.0112 29.3156L38.7153 51.9551C38.3464 52.5832 38.3421 53.3607 38.7039 53.9929C39.0658 54.625 39.7384 55.015 40.4668 55.015H48.2055V68.846C48.2055 69.7626 48.8193 70.5656 49.7037 70.8061ZM52.268 61.3762V52.9838C52.268 51.8619 51.3585 50.9525 50.2367 50.9525H44.0154L51.7315 37.814V46.2063C51.7315 47.3281 52.6409 48.2376 53.7627 48.2376H59.9841L52.268 61.3762Z" fill="#2E3A5B"></path><path fill-rule="evenodd" clip-rule="evenodd" d="M80.291 55.8101C81.4128 55.8101 82.3223 54.9006 82.3223 53.7788V45.4131C82.3223 44.2913 81.4128 43.3819 80.291 43.3819C79.1692 43.3819 78.2598 44.2913 78.2598 45.4131V53.7788C78.2598 54.9006 79.1692 55.8101 80.291 55.8101Z" fill="#2E3A5B"></path><path fill-rule="evenodd" clip-rule="evenodd" d="M74.0762 49.5957C74.0762 50.7175 74.9856 51.627 76.1074 51.627H84.4731C85.595 51.627 86.5044 50.7175 86.5044 49.5957C86.5044 48.4739 85.595 47.5645 84.4731 47.5645H76.1074C74.9856 47.5645 74.0762 48.4739 74.0762 49.5957Z" fill="#2E3A5B"></path><path fill-rule="evenodd" clip-rule="evenodd" d="M17.4951 49.5952C17.4951 50.717 18.4045 51.6265 19.5264 51.6265H27.8921C29.0139 51.6265 29.9233 50.717 29.9233 49.5952C29.9233 48.4734 29.0139 47.564 27.8921 47.564H19.5264C18.4045 47.564 17.4951 48.4734 17.4951 49.5952Z" fill="#2E3A5B"></path><path fill-rule="evenodd" clip-rule="evenodd" d="M0 22.0415C0 23.1633 0.909422 24.0728 2.03125 24.0728H101.969C103.091 24.0728 104 23.1633 104 22.0415V11.4225C104 10.3007 103.091 9.39128 101.969 9.39128H61.1825C60.0606 9.39128 59.1512 10.3007 59.1512 11.4225C59.1512 12.5444 60.0606 13.4538 61.1825 13.4538H99.9375V20.0103H4.0625V13.4538H42.8175C43.9394 13.4538 44.8488 12.5444 44.8488 11.4225C44.8488 10.3007 43.9394 9.39128 42.8175 9.39128H2.03125C0.909422 9.39128 0 10.3007 0 11.4225V22.0415Z" fill="#2E3A5B"></path></svg>