<svg xmlns="http://www.w3.org/2000/svg" width="104" height="104" viewBox="0 0 104 104" fill="none"><path d="M47.7901 76.7339C46.9469 76.7339 46.2636 77.4174 46.2636 78.2604V96.3679C46.2636 98.893 44.2094 100.947 41.6844 100.947H21.8236C19.2986 100.947 17.2444 98.893 17.2444 96.3679V48.9318C17.2444 48.0888 16.5611 47.4053 15.7179 47.4053C14.8747 47.4053 14.1914 48.0888 14.1914 48.9318V96.3679C14.1914 100.576 17.6151 104 21.8234 104H41.6842C45.8925 104 49.3162 100.576 49.3162 96.3679V78.2604C49.3166 77.4174 48.6333 76.7339 47.7901 76.7339Z" fill="#2E3A5B"></path><path d="M41.6842 7.24547H39.5666V3.65828C39.5666 1.64105 37.9253 0 35.9083 0H27.5995C25.5823 0 23.9412 1.64105 23.9412 3.65808V7.24527H21.8234C17.6151 7.24527 14.1914 10.6689 14.1914 14.8773V42.8259C14.1914 43.6688 14.8747 44.3523 15.7179 44.3523C16.5611 44.3523 17.2444 43.6688 17.2444 42.8259V21.5475H46.2636V72.1547C46.2636 72.9976 46.9469 73.6812 47.7901 73.6812C48.6333 73.6812 49.3166 72.9976 49.3166 72.1547V14.8775C49.3164 10.6691 45.8927 7.24547 41.6842 7.24547ZM26.994 3.65808C26.994 3.32434 27.2655 3.05277 27.5993 3.05277H35.9081C36.242 3.05277 36.5134 3.32434 36.5134 3.65808V7.24527H26.9938V3.65808H26.994ZM17.2442 18.4945V14.8775C17.2442 12.3524 19.2984 10.2982 21.8234 10.2982H41.6842C44.209 10.2982 46.2634 12.3524 46.2634 14.8775V18.4945H17.2442Z" fill="#2E3A5B"></path><path d="M31.7543 28.103C30.9111 28.103 30.2278 28.7865 30.2278 29.6295V32.406H27.4513C26.6081 32.406 25.9248 33.0895 25.9248 33.9325C25.9248 34.7755 26.6081 35.459 27.4513 35.459H30.2278V38.2355C30.2278 39.0785 30.9111 39.762 31.7543 39.762C32.5975 39.762 33.2808 39.0785 33.2808 38.2355V35.459H36.0575C36.9007 35.459 37.584 34.7757 37.584 33.9325C37.584 33.0895 36.9007 32.406 36.0575 32.406H33.2808V29.6295C33.2808 28.7863 32.5973 28.103 31.7543 28.103Z" fill="#2E3A5B"></path><path d="M27.4513 91.7268H36.0575C36.9007 91.7268 37.584 91.0433 37.584 90.2003C37.584 89.3573 36.9007 88.6738 36.0575 88.6738H27.4513C26.6081 88.6738 25.9248 89.3571 25.9248 90.2003C25.9248 91.0435 26.6081 91.7268 27.4513 91.7268Z" fill="#2E3A5B"></path><path d="M82.1766 7.24527H80.0588V3.65808C80.0588 1.64105 78.4177 0 76.4005 0H68.0917C66.0744 0 64.4334 1.64105 64.4334 3.65808V7.24527H62.3156C58.1073 7.24527 54.6836 10.6689 54.6836 14.8773V96.3676C54.6836 100.576 58.1073 104 62.3156 104H82.1764C86.3847 104 89.8084 100.576 89.8084 96.3676V53.8161C89.8084 52.9732 89.1251 52.2897 88.2819 52.2897C87.4387 52.2897 86.7554 52.9732 86.7554 53.8161V96.3678C86.7554 98.8928 84.7012 100.947 82.1762 100.947H62.3154C59.7904 100.947 57.7362 98.8928 57.7362 96.3678V21.5473H86.7554V47.7104C86.7554 48.5534 87.4387 49.2369 88.2819 49.2369C89.1251 49.2369 89.8084 48.5536 89.8084 47.7104V14.8773C89.8086 10.6689 86.3849 7.24527 82.1766 7.24527ZM67.4864 3.65788C67.4864 3.32414 67.7579 3.05256 68.0919 3.05256H76.4007C76.7346 3.05256 77.006 3.32414 77.006 3.65788V7.24506H67.4864V3.65788ZM57.7366 18.4943V14.8773C57.7366 12.3522 59.7908 10.298 62.3158 10.298H82.1766C84.7016 10.298 86.7558 12.3522 86.7558 14.8773V18.4943H57.7366Z" fill="#2E3A5B"></path><path d="M76.5487 32.406H73.7722V29.6295C73.7722 28.7865 73.0889 28.103 72.2457 28.103C71.4025 28.103 70.7192 28.7865 70.7192 29.6295V32.406H67.9425C67.0993 32.406 66.416 33.0895 66.416 33.9325C66.416 34.7755 67.0993 35.459 67.9425 35.459H70.7192V38.2355C70.7192 39.0785 71.4025 39.762 72.2457 39.762C73.0889 39.762 73.7722 39.0785 73.7722 38.2355V35.459H76.5487C77.3919 35.459 78.0752 34.7757 78.0752 33.9325C78.0752 33.0893 77.3919 32.406 76.5487 32.406Z" fill="#2E3A5B"></path><path d="M76.5487 88.6738H67.9425C67.0993 88.6738 66.416 89.3571 66.416 90.2003C66.416 91.0435 67.0993 91.7268 67.9425 91.7268H76.5487C77.3919 91.7268 78.0752 91.0433 78.0752 90.2003C78.0752 89.3573 77.3919 88.6738 76.5487 88.6738Z" fill="#2E3A5B"></path></svg>