<svg xmlns="http://www.w3.org/2000/svg" width="125.000000pt" height="125.000000pt" viewBox="0 0 125.000000 125.000000" preserveAspectRatio="xMidYMid meet"><g transform="translate(0.000000,125.000000) scale(0.100000,-0.100000)" fill="#000000" stroke="none"><path d="M550 1240 c-147 -20 -254 -73 -360 -180 -125 -124 -182 -261 -183 -435 0 -173 59 -313 182 -435 125 -125 263 -183 436 -183 176 0 313 58 440 187 124 126 178 256 178 431 0 175 -54 305 -178 431 -143 143 -328 210 -515 184z m264 -58 c173 -62 303 -192 369 -368 18 -50 22 -79 22 -189 0 -110 -4 -139 -22 -189 -72 -190 -225 -333 -409 -380 -79 -20 -219 -20 -297 0 -183 47 -343 195 -407 375 -31 88 -38 241 -16 329 54 214 221 383 431 437 77 19 256 11 329 -15z"></path><path d="M540 1118 c0 -29 -3 -63 -6 -75 -5 -17 -2 -23 10 -23 13 0 16 11 16 50 0 59 10 63 33 15 22 -46 41 -44 63 8 l19 42 3 -57 c2 -43 7 -58 18 -58 12 0 14 14 12 73 -3 66 -5 72 -25 75 -18 3 -26 -5 -39 -37 -9 -23 -19 -41 -23 -41 -5 0 -14 18 -21 40 -10 32 -18 40 -37 40 -21 0 -23 -4 -23 -52z"></path><path d="M897 1013 c-30 -49 -34 -60 -22 -72 11 -12 19 -10 50 9 20 12 38 20 41 17 3 -2 -5 -21 -17 -41 -19 -32 -20 -39 -8 -52 13 -12 22 -9 69 23 30 20 57 38 59 40 3 2 0 8 -6 14 -8 8 -21 4 -47 -16 -44 -33 -53 -29 -29 13 25 43 8 60 -37 37 -43 -22 -48 -13 -16 30 25 32 27 55 7 55 -4 0 -24 -26 -44 -57z"></path><path d="M227 1001 l-52 -50 52 -53 52 -52 43 49 c24 26 47 54 51 62 11 18 -9 43 -34 43 -11 0 -19 7 -19 15 0 8 -9 19 -20 25 -18 9 -28 4 -73 -39z m73 5 c0 -17 -48 -76 -61 -76 -24 0 -20 33 7 61 30 31 54 38 54 15z m50 -40 c0 -17 -54 -76 -69 -76 -27 0 -21 31 10 60 36 32 59 39 59 16z"></path><path d="M503 971 c-65 -24 -97 -46 -152 -106 -67 -72 -85 -123 -86 -235 0 -84 3 -102 28 -156 36 -77 104 -145 182 -181 52 -24 72 -28 155 -28 84 0 102 3 152 28 121 59 197 172 206 301 10 162 -69 297 -213 362 -80 37 -196 43 -272 15z m267 -27 c105 -47 191 -161 206 -272 l7 -52 -177 0 -176 0 0 -176 0 -177 -47 7 c-154 21 -288 156 -309 310 l-7 46 177 0 176 0 0 176 0 177 46 -7 c26 -3 72 -18 104 -32z"></path></g></svg>