<svg xmlns="http://www.w3.org/2000/svg" width="104" height="104" viewBox="0 0 104 104" fill="none"><g clip-path="url(#clip0_69_742)"><path fill-rule="evenodd" clip-rule="evenodd" d="M48.1869 93.6735C48.7478 92.7019 48.4149 91.4597 47.4434 90.8987L20.6922 75.4541C19.7207 74.8932 18.4784 75.2261 17.9175 76.1976C17.3566 77.1692 17.6895 78.4115 18.661 78.9724L45.4122 94.417C46.3837 94.9779 47.626 94.645 48.1869 93.6735ZM55.8194 93.6702C56.3803 94.6418 57.6226 94.9746 58.5941 94.4137L85.5632 78.8432C86.5348 78.2823 86.8677 77.04 86.3067 76.0684C85.7458 75.0969 84.5035 74.764 83.532 75.3249L56.5629 90.8955C55.5914 91.4564 55.2585 92.6987 55.8194 93.6702ZM14.0029 69.342C15.1248 69.342 16.0342 68.4325 16.0342 67.3107V36.664C16.0342 35.5422 15.1248 34.6328 14.0029 34.6328C12.8811 34.6328 11.9717 35.5422 11.9717 36.664V67.3107C11.9717 68.4325 12.8811 69.342 14.0029 69.342ZM89.9973 69.342C91.1191 69.342 92.0285 68.4325 92.0285 67.3107V36.664C92.0285 35.5422 91.1191 34.6328 89.9973 34.6328C88.8754 34.6328 87.966 35.5422 87.966 36.664V67.3107C87.966 68.4325 88.8754 69.342 89.9973 69.342ZM86.1841 27.8608C86.745 26.8892 86.4121 25.6469 85.4406 25.086L58.6894 9.64143C57.7179 9.08052 56.4756 9.41341 55.9147 10.3849C55.3538 11.3565 55.6866 12.5988 56.6582 13.1597L83.4093 28.6043C84.3809 29.1652 85.6231 28.8323 86.1841 27.8608ZM17.8222 27.8575C18.3832 28.8291 19.6255 29.1619 20.597 28.601L26.1638 25.387C27.1354 24.8261 27.4682 23.5838 26.9073 22.6122C26.3464 21.6407 25.1041 21.3078 24.1326 21.8688L18.5657 25.0828C17.5942 25.6437 17.2613 26.886 17.8222 27.8575ZM39.2233 15.5016C39.7842 16.4732 41.0265 16.8061 41.998 16.2451L47.5661 13.0305C48.5376 12.4696 48.8705 11.2273 48.3096 10.2558C47.7487 9.28422 46.5064 8.95134 45.5348 9.51225L39.9668 12.7269C38.9952 13.2878 38.6624 14.5301 39.2233 15.5016Z" fill="#2E3A5B"></path><path fill-rule="evenodd" clip-rule="evenodd" d="M52 12.187C49.7656 12.187 47.9375 10.3589 47.9375 8.12451C47.9375 5.89011 49.7656 4.06201 52 4.06201C54.2346 4.06201 56.0625 5.89006 56.0625 8.12451C56.0625 10.359 54.2346 12.187 52 12.187ZM43.875 8.12451C43.875 12.6026 47.5219 16.2495 52 16.2495C56.4783 16.2495 60.125 12.6025 60.125 8.12451C60.125 3.64649 56.4783 -0.000488281 52 -0.000488281C47.5219 -0.000488281 43.875 3.64645 43.875 8.12451Z" fill="#2E3A5B"></path><path fill-rule="evenodd" clip-rule="evenodd" d="M52 99.9375C49.7656 99.9375 47.9375 98.1094 47.9375 95.875C47.9375 93.6406 49.7656 91.8125 52 91.8125C54.2346 91.8125 56.0625 93.6405 56.0625 95.875C56.0625 98.1095 54.2346 99.9375 52 99.9375ZM43.875 95.875C43.875 100.353 47.5219 104 52 104C56.4783 104 60.125 100.353 60.125 95.875C60.125 91.397 56.4783 87.75 52 87.75C47.5219 87.75 43.875 91.3969 43.875 95.875Z" fill="#2E3A5B"></path><path fill-rule="evenodd" clip-rule="evenodd" d="M14.0029 34.1245C11.7685 34.1245 9.94043 32.2964 9.94043 30.062C9.94043 27.8276 11.7685 25.9995 14.0029 25.9995C16.2375 25.9995 18.0654 27.8276 18.0654 30.062C18.0654 32.2965 16.2375 34.1245 14.0029 34.1245ZM5.87793 30.062C5.87793 34.5401 9.52487 38.187 14.0029 38.187C18.4812 38.187 22.1279 34.54 22.1279 30.062C22.1279 25.584 18.4812 21.937 14.0029 21.937C9.52487 21.937 5.87793 25.5839 5.87793 30.062Z" fill="#2E3A5B"></path><path fill-rule="evenodd" clip-rule="evenodd" d="M14.0029 78C11.7685 78 9.94043 76.1719 9.94043 73.9375C9.94043 71.7031 11.7685 69.875 14.0029 69.875C16.2375 69.875 18.0654 71.703 18.0654 73.9375C18.0654 76.172 16.2375 78 14.0029 78ZM5.87793 73.9375C5.87793 78.4156 9.52487 82.0625 14.0029 82.0625C18.4812 82.0625 22.1279 78.4155 22.1279 73.9375C22.1279 69.4595 18.4812 65.8125 14.0029 65.8125C9.52487 65.8125 5.87793 69.4594 5.87793 73.9375Z" fill="#2E3A5B"></path><path fill-rule="evenodd" clip-rule="evenodd" d="M89.9971 34.1245C87.7627 34.1245 85.9346 32.2964 85.9346 30.062C85.9346 27.8276 87.7627 25.9995 89.9971 25.9995C92.2315 25.9995 94.0596 27.8276 94.0596 30.062C94.0596 32.2964 92.2315 34.1245 89.9971 34.1245ZM81.8721 30.062C81.8721 34.5401 85.519 38.187 89.9971 38.187C94.4751 38.187 98.1221 34.5401 98.1221 30.062C98.1221 25.5839 94.4751 21.937 89.9971 21.937C85.519 21.937 81.8721 25.5839 81.8721 30.062Z" fill="#2E3A5B"></path><path fill-rule="evenodd" clip-rule="evenodd" d="M89.9971 78C87.7627 78 85.9346 76.1719 85.9346 73.9375C85.9346 71.7031 87.7627 69.875 89.9971 69.875C92.2315 69.875 94.0596 71.7031 94.0596 73.9375C94.0596 76.1719 92.2315 78 89.9971 78ZM81.8721 73.9375C81.8721 78.4156 85.519 82.0625 89.9971 82.0625C94.4751 82.0625 98.1221 78.4156 98.1221 73.9375C98.1221 69.4594 94.4751 65.8125 89.9971 65.8125C85.519 65.8125 81.8721 69.4594 81.8721 73.9375Z" fill="#2E3A5B"></path><path fill-rule="evenodd" clip-rule="evenodd" d="M50.9844 81.9046C51.6129 82.2675 52.3871 82.2675 53.0156 81.9046L77.3906 67.8319C78.0191 67.4691 78.4062 66.7985 78.4062 66.0728V37.927C78.4062 37.2013 78.0191 36.5307 77.3906 36.1679L53.0156 22.0952C52.3871 21.7323 51.6129 21.7323 50.9844 22.0952L26.6094 36.1679C25.9809 36.5307 25.5938 37.2013 25.5938 37.927V66.0728C25.5938 66.7985 25.9809 67.4691 26.6094 67.8319L50.9844 81.9046ZM29.6562 64.9001V39.0997L52 26.1998L74.3438 39.0997V64.9L52 77.8L29.6562 64.9001Z" fill="#2E3A5B"></path><path fill-rule="evenodd" clip-rule="evenodd" d="M50.984 53.7591C51.6124 54.122 52.3867 54.122 53.0152 53.7591L77.101 39.8534C78.0725 39.2925 78.4054 38.0502 77.8445 37.0787C77.2836 36.1071 76.0413 35.7742 75.0697 36.3351L51.9996 49.6545L29.3656 36.5868C28.394 36.0259 27.1517 36.3588 26.5908 37.3303C26.0299 38.3018 26.3628 39.5441 27.3343 40.1051L50.984 53.7591Z" fill="#2E3A5B"></path><path fill-rule="evenodd" clip-rule="evenodd" d="M52 81.2246C53.1218 81.2246 54.0312 80.3152 54.0312 79.1934V52C54.0312 50.8782 53.1218 49.9688 52 49.9688C50.8782 49.9688 49.9688 50.8782 49.9688 52V79.1934C49.9688 80.3152 50.8782 81.2246 52 81.2246Z" fill="#2E3A5B"></path><path fill-rule="evenodd" clip-rule="evenodd" d="M38.5947 45.6667C39.1557 46.6382 40.3979 46.9711 41.3695 46.4101L64.6616 32.9625C65.6332 32.4015 65.966 31.1593 65.4051 30.1877C64.8442 29.2162 63.6019 28.8833 62.6304 29.4442L39.3382 42.8919C38.3667 43.4528 38.0338 44.6951 38.5947 45.6667Z" fill="#2E3A5B"></path><path fill-rule="evenodd" clip-rule="evenodd" d="M59.3477 65.7467C59.9086 66.7183 61.1509 67.0511 62.1224 66.4902L69.3662 62.3081C70.3378 61.7472 70.6707 60.5049 70.1098 59.5334C69.5488 58.5618 68.3066 58.2289 67.335 58.7898L60.0912 62.972C59.1196 63.5329 58.7868 64.7752 59.3477 65.7467Z" fill="#2E3A5B"></path><path fill-rule="evenodd" clip-rule="evenodd" d="M31.0332 19.0562C31.0332 20.178 31.9426 21.0874 33.0645 21.0874H33.0659C34.1877 21.0874 35.0971 20.178 35.0971 19.0562C35.0971 17.9343 34.1877 17.0249 33.0659 17.0249H33.0645C31.9426 17.0249 31.0332 17.9343 31.0332 19.0562Z" fill="#2E3A5B"></path></g><defs><clipPath id="clip0_69_742"><rect width="104" height="104" fill="white"></rect></clipPath></defs></svg>