<svg width="24" height="24" viewBox="0 0 24 24" fill="none" xmlns="http://www.w3.org/2000/svg">
<path d="M12 0C9.62663 0 7.30655 0.703788 5.33316 2.02236C3.35977 3.34094 1.8217 5.21509 0.913451 7.4078C0.00519937 9.60051 -0.232441 12.0133 0.230582 14.3411C0.693605 16.6689 1.83649 18.8071 3.51472 20.4853C5.19295 22.1635 7.33115 23.3064 9.65892 23.7694C11.9867 24.2324 14.3995 23.9948 16.5922 23.0866C18.7849 22.1783 20.6591 20.6402 21.9776 18.6668C23.2962 16.6935 24 14.3734 24 12C23.9958 8.81869 22.7302 5.76889 20.4806 3.51937C18.2311 1.26984 15.1813 0.00420688 12 0V0ZM13.59 15.705L12.525 16.77C12.1804 17.1195 11.7692 17.3965 11.3158 17.5846C10.8624 17.7727 10.3759 17.868 9.88501 17.865C9.14419 17.8662 8.41968 17.6475 7.80316 17.2368C7.18665 16.826 6.70585 16.2416 6.4216 15.5575C6.13735 14.8733 6.06244 14.1203 6.20634 13.3936C6.35025 12.6669 6.7065 11.9992 7.23001 11.475L8.29501 10.41C8.36272 10.3389 8.44416 10.2823 8.53441 10.2436C8.62466 10.2049 8.72182 10.185 8.82001 10.185C8.91819 10.185 9.01536 10.2049 9.1056 10.2436C9.19585 10.2823 9.2773 10.3389 9.34501 10.41C9.4162 10.4792 9.47279 10.562 9.51144 10.6535C9.55008 10.7449 9.56999 10.8432 9.56999 10.9425C9.56999 11.0418 9.55008 11.1401 9.51144 11.2315C9.47279 11.323 9.4162 11.4058 9.34501 11.475L8.28001 12.525C7.86431 12.9496 7.63259 13.5208 7.63501 14.115C7.631 14.4097 7.686 14.7021 7.79678 14.9752C7.90755 15.2483 8.07185 15.4964 8.28001 15.705C8.48947 15.9154 8.73841 16.0823 9.01256 16.1962C9.2867 16.3101 9.58064 16.3687 9.87751 16.3687C10.1744 16.3687 10.4683 16.3101 10.7425 16.1962C11.0166 16.0823 11.2655 15.9154 11.475 15.705L12.525 14.655C12.5942 14.5838 12.677 14.5272 12.7685 14.4886C12.8599 14.4499 12.9582 14.43 13.0575 14.43C13.1568 14.43 13.2551 14.4499 13.3465 14.4886C13.438 14.5272 13.5208 14.5838 13.59 14.655C13.6611 14.7227 13.7177 14.8042 13.7564 14.8944C13.7951 14.9847 13.815 15.0818 13.815 15.18C13.815 15.2782 13.7951 15.3753 13.7564 15.4656C13.7177 15.5558 13.6611 15.6373 13.59 15.705ZM14.115 10.935L10.935 14.115C10.8673 14.1861 10.7858 14.2427 10.6956 14.2814C10.6054 14.3201 10.5082 14.34 10.41 14.34C10.3118 14.34 10.2147 14.3201 10.1244 14.2814C10.0342 14.2427 9.95272 14.1861 9.88501 14.115C9.8139 14.0473 9.75729 13.9658 9.71861 13.8756C9.67993 13.7853 9.65998 13.6882 9.65998 13.59C9.65998 13.4918 9.67993 13.3947 9.71861 13.3044C9.75729 13.2142 9.8139 13.1327 9.88501 13.065L13.065 9.885C13.1337 9.81491 13.2156 9.75913 13.306 9.72089C13.3964 9.68265 13.4934 9.6627 13.5916 9.66221C13.6897 9.66171 13.787 9.68067 13.8777 9.718C13.9685 9.75533 14.0509 9.81028 14.1203 9.87967C14.1897 9.94906 14.2447 10.0315 14.282 10.1223C14.3193 10.213 14.3383 10.3103 14.3378 10.4084C14.3373 10.5066 14.3174 10.6036 14.2791 10.694C14.2409 10.7844 14.1851 10.8663 14.115 10.935ZM16.77 12.525L15.705 13.59C15.6381 13.6621 15.5568 13.7194 15.4664 13.7582C15.3759 13.7969 15.2784 13.8163 15.18 13.815C15.0818 13.8148 14.9847 13.7948 14.8945 13.7562C14.8043 13.7175 14.7228 13.661 14.655 13.59C14.5838 13.5208 14.5272 13.438 14.4886 13.3465C14.4499 13.2551 14.43 13.1568 14.43 13.0575C14.43 12.9582 14.4499 12.8599 14.4886 12.7685C14.5272 12.677 14.5838 12.5942 14.655 12.525L15.72 11.475C16.1357 11.0504 16.3674 10.4792 16.365 9.885C16.369 9.59035 16.314 9.29787 16.2032 9.0248C16.0925 8.75173 15.9282 8.50359 15.72 8.295C15.5105 8.08463 15.2616 7.91771 14.9875 7.80381C14.7133 7.68991 14.4194 7.63128 14.1225 7.63128C13.8256 7.63128 13.5317 7.68991 13.2576 7.80381C12.9834 7.91771 12.7345 8.08463 12.525 8.295L11.475 9.345C11.4058 9.41619 11.323 9.47279 11.2315 9.51143C11.1401 9.55008 11.0418 9.56999 10.9425 9.56999C10.8432 9.56999 10.7449 9.55008 10.6535 9.51143C10.562 9.47279 10.4792 9.41619 10.41 9.345C10.3389 9.27729 10.2823 9.19584 10.2436 9.1056C10.2049 9.01535 10.185 8.91819 10.185 8.82C10.185 8.72181 10.2049 8.62465 10.2436 8.5344C10.2823 8.44416 10.3389 8.36271 10.41 8.295L11.475 7.23C12.1779 6.53159 13.1291 6.14032 14.12 6.14192C15.1109 6.14352 16.0608 6.53787 16.7615 7.23855C17.4621 7.93923 17.8565 8.8891 17.8581 9.88001C17.8597 10.8709 17.4684 11.8221 16.77 12.525Z" fill="#FFA902"/>
</svg>
