<svg xmlns="http://www.w3.org/2000/svg" width="32" height="32" viewBox="0 0 32 32" fill="none"><g clip-path="url(#clip0_209_509)"><path d="M23.127 18.5091C22.3441 18.4061 21.5719 18.2141 20.8337 17.9389C20.0146 17.6328 19.0834 17.8301 18.4588 18.4461L17.6605 19.2424C15.8679 18.1517 14.3603 16.6472 13.2664 14.8584L14.0659 14.0605C14.6813 13.4387 14.8802 12.5086 14.5726 11.6915C14.2963 10.9528 14.1038 10.1827 14.0003 9.3966C13.843 8.28517 12.883 7.43931 11.7561 7.46543H9.18175C9.11456 7.46543 9.04737 7.46862 8.98125 7.47506C8.38288 7.52837 7.84151 7.81212 7.45646 8.27236C7.0714 8.73367 6.88903 9.3166 6.9439 9.92247C7.23296 12.6397 8.1727 15.2883 9.65856 17.5778C11.0089 19.6989 12.8457 21.5325 14.9673 22.878C17.2537 24.3574 19.8947 25.2956 22.6158 25.5905C22.6851 25.5969 22.7545 25.5996 22.8259 25.5996C23.427 25.5975 23.9907 25.3617 24.4141 24.9345C24.8376 24.5089 25.0691 23.9436 25.0669 23.3457V20.7826C25.0917 19.645 24.2608 18.6686 23.127 18.5091ZM24.0011 20.7778V23.349C24.0022 23.6637 23.8806 23.9602 23.6582 24.1842C23.4358 24.4082 23.1393 24.5319 22.8252 24.533C22.7868 24.533 22.7483 24.5314 22.7206 24.5292C20.1756 24.2535 17.6956 23.3724 15.5436 21.9799C13.5495 20.7154 11.8258 18.9949 10.5565 17.0019C9.15862 14.8483 8.27651 12.3619 8.00558 9.81903C7.97676 9.50541 8.07276 9.19929 8.27488 8.95773C8.47757 8.71561 8.76232 8.56679 9.07806 8.53854C9.11275 8.53536 9.14737 8.53323 9.18206 8.53323H11.7618C11.765 8.53323 11.7693 8.53323 11.773 8.53323C12.3596 8.53323 12.862 8.96735 12.9447 9.54335C13.0583 10.4041 13.27 11.2532 13.5751 12.0681C13.7361 12.4974 13.6321 12.9854 13.3111 13.3092L12.2215 14.3972C12.0508 14.5668 12.0156 14.8297 12.1345 15.0388C13.4033 17.2654 15.2529 19.1113 17.4833 20.3768C17.6918 20.4947 17.9536 20.46 18.1233 20.2905L19.2113 19.2052C19.5387 18.8825 20.0278 18.7769 20.4609 18.9401C21.2752 19.2435 22.1259 19.4548 22.984 19.5679C23.5787 19.6516 24.016 20.1662 24.0011 20.7652C24.0011 20.7688 24.0011 20.7736 24.0011 20.7778Z" fill="#C40000"></path><path d="M16.0002 0C7.17793 0 0.000384346 7.17754 0.000384346 15.9998C0.000384346 19.051 0.861187 22.0088 2.49261 24.5736L0.032884 31.2828C-0.0380527 31.4748 0.00782177 31.6908 0.150758 31.8375C0.253131 31.9431 0.391817 31.9996 0.533691 31.9996C0.590252 31.9996 0.647314 31.9906 0.702251 31.9724L7.66167 29.653C10.1715 31.1884 13.0488 31.9997 16.0003 31.9997C24.8225 31.9997 32.0001 24.8221 32.0001 15.9999C32.0001 7.1776 24.8225 0 16.0002 0ZM16.0007 30.933C13.1666 30.933 10.4056 30.1319 8.01679 28.6167C7.93042 28.5624 7.83117 28.534 7.73092 28.534C7.67386 28.534 7.6173 28.5431 7.56236 28.5618L1.41574 30.6103L3.5864 24.6904C3.64453 24.5315 3.62428 24.3544 3.53097 24.2131C1.91924 21.7721 1.06756 18.9321 1.06756 15.9999C1.06756 7.76585 7.76667 1.06674 16.0007 1.06674C24.2347 1.06674 30.9338 7.76585 30.9338 15.9999C30.9338 24.2339 24.2347 30.933 16.0007 30.933Z" fill="#C40000"></path></g><defs><clipPath id="clip0_209_509"><rect width="32" height="32" fill="white"></rect></clipPath></defs></svg>